<svg height="15" viewBox="0 0 15 15" width="15" xmlns="http://www.w3.org/2000/svg"><path d="m11.9676 10.2275a3.8116 3.8116 0 0 1 -1.9122.9831l-6.2876-6.2768a4.0283 4.0283 0 0 1 1.0047-1.9014c2.2575-2.2579 5.2075-2.8089 7.6056-.4105s1.8474 5.3481-.4105 7.6056zm-6.987 1.6093a3.8422 3.8422 0 0 1 1.1684-.5588 4.5328 4.5328 0 0 1 1.851.1672l-4.4544-4.4452a4.4126 4.4126 0 0 1 .1572 1.9223 3.6639 3.6639 0 0 1 -.5208 1.1159c-1.072 1.263-2.132 1.727-2.132 2.1879a1.8378 1.8378 0 0 0 1.7239 1.7239c.4609 0 .9178-1.0132 2.2067-2.1132z"/></svg>